<svg width="259" height="40" viewBox="0 0 259 40" fill="none" xmlns="http://www.w3.org/2000/svg">
<g clip-path="url(#clip0_1_373)">
<path d="M26.0837 29.9753L22.7833 32.3891C22.4138 32.0443 21.1084 30.665 18.8916 28.3004C16.6502 25.9605 13.202 22.2659 8.5468 17.2659V17.0689C9.21182 16.8965 10.0493 16.5763 11.1084 16.0344C12.1675 15.5172 13.0542 14.9507 13.7685 14.3349C14.3842 13.793 14.9261 13.1526 15.3941 12.3645C15.8621 11.5763 16.0837 10.5418 16.0837 9.21175C16.0837 8.00485 15.7389 6.97037 15.0739 6.1083C14.4089 5.2216 13.4729 4.60584 12.2906 4.18712C11.33 3.84229 10.2956 3.64525 9.23645 3.57136C8.17734 3.49746 7.19212 3.47283 6.28079 3.47283H4.21182C4.18719 6.45313 4.16256 9.0886 4.13793 11.3546C4.13793 13.6452 4.13793 15.2462 4.13793 16.2068C4.13793 18.3497 4.13793 21.2807 4.16256 24.9753C4.16256 28.6699 4.18719 31.5024 4.21182 32.4384H0C0 31.5024 0.0492611 29.1625 0.0985222 26.4531C0.147783 23.7438 0.147783 20.3694 0.147783 16.33V11.9704C0.147783 9.85215 0.0985222 5.98515 0 0.369386C0.172414 0.369386 1.00985 0.369386 2.51232 0.344755C4.01478 0.320125 5.41872 0.295494 6.67488 0.295494C8.12808 0.295494 9.53202 0.369386 10.9113 0.517169C12.2906 0.689583 13.6207 1.00978 14.9261 1.52702C16.5764 2.19205 17.9064 3.15264 18.867 4.43342C19.8276 5.71421 20.3202 7.19205 20.3202 8.94081C20.3202 11.1576 19.5813 13.0049 18.1281 14.4827C16.6502 15.9605 15.2956 17.0689 13.9655 17.7832V17.9063C16.2808 20.4186 18.8177 22.9802 21.601 25.6403C24.3596 28.3004 25.8621 29.729 26.0591 29.926" fill="#0071B9"/>
<path d="M52.5126 32.4384C52.3155 32.4384 51.2071 32.4384 49.1135 32.4138C47.0446 32.3892 44.483 32.3645 41.4042 32.3645C39.286 32.3645 37.3401 32.3645 35.5667 32.4138C33.7933 32.4384 32.2909 32.4384 31.084 32.4384C31.1332 31.5025 31.1579 29.4828 31.2071 26.4039C31.2318 23.3005 31.2564 20.0985 31.2564 16.798C31.2564 15 31.2564 12.5862 31.2071 9.6059C31.2071 6.62561 31.1332 3.52216 31.084 0.344818C32.2663 0.344818 33.7687 0.344818 35.5421 0.369449C37.3155 0.394079 39.1628 0.41871 41.0594 0.41871C44.2613 0.41871 46.8722 0.41871 48.8919 0.369449C50.8869 0.369449 51.9953 0.344818 52.5864 0.344818V3.69457C51.9707 3.69457 50.9362 3.69457 48.9904 3.66994C47.0692 3.64531 44.6554 3.62068 41.7983 3.62068H35.2465C35.2465 5.41871 35.2465 7.24137 35.1973 9.0394C35.1973 10.8374 35.1727 12.5369 35.1727 14.1379H40.5667C43.4978 14.1379 46.1332 14.1379 48.4485 14.0887C50.7638 14.0887 51.9707 14.0394 52.5618 14.0394V17.4384C51.9953 17.4384 50.616 17.4384 47.9805 17.3892C45.3697 17.3645 42.9805 17.3399 40.7884 17.3399H35.148C35.148 20.3941 35.148 22.8079 35.148 24.6059C35.148 26.4039 35.1973 27.8818 35.1973 29.1133C36.1825 29.1379 37.3648 29.1626 38.7687 29.1626C40.1727 29.1626 41.6997 29.1626 43.3007 29.1626C45.7884 29.1626 47.882 29.1626 49.5569 29.1379C51.2564 29.1379 52.1924 29.0887 52.4387 29.0887V32.3892L52.5126 32.4384Z" fill="#0071B9"/>
<path d="M117.094 32.4384C116.897 32.4384 115.764 32.4384 113.695 32.4138C111.626 32.3892 109.064 32.3645 105.985 32.3645C103.867 32.3645 101.921 32.3645 100.148 32.4138C98.3744 32.4384 96.8966 32.4384 95.665 32.4384C95.7143 31.5025 95.7389 29.4828 95.7636 26.4039C95.8128 23.3005 95.8128 20.0985 95.8128 16.798C95.8128 15 95.8128 12.5862 95.7882 9.6059C95.7882 6.62561 95.7143 3.52216 95.665 0.344818C96.8473 0.344818 98.3498 0.344818 100.123 0.369449C101.921 0.394079 103.744 0.41871 105.64 0.41871C108.842 0.41871 111.453 0.41871 113.448 0.369449C115.468 0.369449 116.552 0.344818 117.143 0.344818V3.69457C116.552 3.69457 115.493 3.69457 113.571 3.66994C111.65 3.64531 109.236 3.62068 106.355 3.62068H99.8276C99.8276 5.41871 99.8276 7.24137 99.7783 9.0394C99.7537 10.8374 99.7537 12.5369 99.7537 14.1379H105.148C108.079 14.1379 110.714 14.1379 113.005 14.0887C115.32 14.0887 116.552 14.0394 117.118 14.0394V17.4384C116.552 17.4384 115.172 17.4384 112.562 17.3892C109.951 17.3645 107.537 17.3399 105.369 17.3399H99.7291C99.7291 20.3941 99.7291 22.8079 99.7291 24.6059C99.7291 26.4039 99.7537 27.8818 99.7783 29.1133C100.764 29.1379 101.946 29.1626 103.35 29.1626C104.754 29.1626 106.256 29.1626 107.882 29.1626C110.369 29.1626 112.463 29.1626 114.138 29.1379C115.837 29.1379 116.773 29.0887 117.02 29.0887V32.3892L117.094 32.4384Z" fill="#0071B9"/>
<path d="M90.7149 1.6749C90.641 1.87195 88.8676 5.44338 85.4439 12.4385C81.9957 19.4089 78.7198 26.133 75.5671 32.6109H72.1927C68.7198 25.3449 65.4193 18.4729 62.242 12.0197C59.0646 5.56653 57.4144 2.16752 57.2666 1.87195L61.1336 0.0246582C61.2567 0.344855 62.7592 3.62072 65.6656 9.85224C68.572 16.1084 71.3799 21.9705 74.0893 27.4631H74.1385C76.8971 21.8227 79.7543 15.8867 82.71 9.6552C85.6656 3.42367 87.1927 0.221703 87.2912 0.0246582L90.7149 1.69954V1.6749Z" fill="#0071B9"/>
<path d="M145.468 26.2315C145.468 27.3891 145.172 28.3744 144.606 29.2364C144.039 30.0985 143.276 30.7882 142.291 31.33C141.404 31.8226 140.394 32.1921 139.261 32.4384C138.103 32.6847 136.847 32.8079 135.468 32.8079C134.704 32.8079 133.941 32.7832 133.128 32.734C132.315 32.6847 131.847 32.6601 131.7 32.6355L131.552 30.2955C131.724 30.2955 132.168 30.3694 132.931 30.4187C133.67 30.468 134.557 30.5172 135.591 30.5172C136.207 30.5172 137.02 30.4433 138.005 30.2955C139.015 30.1478 139.754 29.9261 140.296 29.6798C140.985 29.3596 141.527 28.9655 141.897 28.5222C142.266 28.0542 142.463 27.4877 142.463 26.7734C142.463 26.0591 142.266 25.3941 141.897 24.8768C141.527 24.3842 140.911 23.867 140.049 23.399C139.483 23.1034 138.769 22.7586 137.882 22.3645C136.995 21.9951 136.207 21.5763 135.493 21.1576C134.286 20.468 133.448 19.729 132.931 18.9162C132.414 18.1034 132.168 17.2167 132.168 16.2069C132.168 15.197 132.389 14.3103 132.857 13.5714C133.325 12.8325 133.941 12.1921 134.68 11.6502C135.419 11.1084 136.355 10.7143 137.438 10.468C138.522 10.197 139.754 10.0739 141.084 10.0739C141.798 10.0739 142.562 10.0739 143.301 10.1478C144.064 10.197 144.483 10.2217 144.581 10.2463L144.828 12.5862C144.828 12.5862 144.286 12.5369 143.547 12.463C142.783 12.3891 141.847 12.3645 140.739 12.3645C140.074 12.3645 139.409 12.4384 138.695 12.5616C138.005 12.7093 137.365 12.931 136.847 13.202C136.379 13.4729 135.985 13.8177 135.64 14.2611C135.32 14.729 135.148 15.2709 135.148 15.8867C135.148 16.4286 135.32 16.9458 135.665 17.463C136.01 17.9556 136.675 18.4975 137.611 19.0148C138.103 19.2857 138.744 19.6059 139.532 19.9754C140.32 20.3202 141.108 20.7143 141.872 21.133C143.03 21.798 143.941 22.5369 144.532 23.3744C145.123 24.2118 145.419 25.1724 145.419 26.2561" fill="#131819"/>
<path d="M165.468 16.4039C163.177 21.133 160.764 26.1823 158.227 31.5025C155.69 36.8227 154.335 39.6552 154.163 40L151.749 39.1626L155.419 32.069C155.32 31.8473 154.581 30.2217 153.202 27.2414C151.823 24.2364 150.123 20.6404 148.153 16.4778L150.788 15.3941C152.094 18.4483 153.399 21.4778 154.754 24.4827C156.084 27.463 156.798 29.0394 156.872 29.2118H156.897C156.897 29.2118 157.636 27.6355 158.916 24.8276C160.173 22.0197 161.576 18.8916 163.079 15.5172L165.493 16.4286L165.468 16.4039Z" fill="#131819"/>
<path d="M179.335 27.6108C179.335 28.4236 179.138 29.1625 178.695 29.8029C178.276 30.4433 177.709 30.9606 177.044 31.3547C176.33 31.7734 175.468 32.0936 174.483 32.3152C173.498 32.5369 172.414 32.6354 171.232 32.6354C170.64 32.6354 170.049 32.6108 169.458 32.5616C168.842 32.5123 168.498 32.4877 168.399 32.463L168.276 30.2955C168.276 30.2955 168.793 30.3448 169.507 30.3941C170.222 30.4433 170.936 30.468 171.626 30.468C172.044 30.468 172.562 30.4187 173.202 30.3694C173.842 30.2955 174.384 30.1724 174.803 30C175.394 29.7537 175.813 29.4581 176.108 29.1133C176.379 28.7684 176.527 28.3251 176.527 27.8325C176.527 27.3891 176.404 27.0197 176.158 26.7241C175.911 26.4532 175.567 26.1822 175.148 25.9113C174.68 25.6157 174.039 25.2955 173.227 24.9507C172.414 24.6059 171.724 24.2857 171.182 23.9655C170.394 23.5221 169.803 22.9803 169.384 22.3645C168.966 21.7487 168.744 21.0098 168.744 20.197C168.744 19.3842 168.99 18.6453 169.458 17.9803C169.926 17.3399 170.567 16.8226 171.379 16.4285C172.069 16.0837 172.833 15.8128 173.67 15.7143C174.507 15.5911 175.32 15.5418 176.108 15.5418C176.823 15.5418 177.414 15.5418 177.857 15.5418C178.325 15.5418 178.571 15.5665 178.645 15.5665L178.842 17.7832C178.842 17.7832 178.399 17.7586 177.759 17.7093C177.118 17.6354 176.429 17.6108 175.665 17.6108C175.123 17.6108 174.631 17.6601 174.138 17.7586C173.645 17.8325 173.227 17.9803 172.906 18.1527C172.389 18.399 172.02 18.6946 171.823 19.0394C171.601 19.3842 171.502 19.729 171.502 20.0492C171.502 20.4926 171.65 20.8867 171.97 21.1822C172.266 21.5024 172.635 21.7734 173.03 21.995C173.498 22.266 174.163 22.5862 175 22.931C175.837 23.3005 176.429 23.596 176.798 23.8177C177.611 24.3103 178.227 24.8276 178.67 25.4433C179.089 26.0345 179.31 26.7487 179.31 27.5615" fill="#131819"/>
<path d="M194.138 30.4433L193.818 32.5123C193.818 32.5123 193.547 32.5123 193.227 32.5615C192.906 32.5615 192.635 32.5615 192.389 32.5615C189.975 32.5615 188.153 32.0936 186.921 31.133C185.69 30.197 185.074 28.7438 185.074 26.798C185.074 25.5665 185.074 24.261 185.098 22.8571C185.098 21.4532 185.123 19.7044 185.123 17.6354H182.118V15.6896H185.296V11.7487H187.832V15.6896H194.162V17.6354H187.832C187.832 17.8817 187.832 18.5714 187.808 19.7044C187.808 20.862 187.808 21.6995 187.808 22.266V26.3793C187.808 27.8078 188.227 28.8423 189.039 29.4827C189.877 30.1231 191.133 30.4433 192.857 30.4433H194.187H194.138Z" fill="#131819"/>
<path d="M209.557 21.601C209.36 20.2463 208.867 19.1872 208.079 18.4237C207.266 17.6601 206.232 17.266 204.902 17.266C203.572 17.266 202.488 17.6601 201.601 18.4483C200.714 19.2365 200.099 20.2956 199.778 21.6256H209.557V21.601ZM212.266 23.4729H199.557C199.557 24.6306 199.828 25.7143 200.345 26.6995C200.862 27.6848 201.65 28.4976 202.709 29.1133C203.399 29.532 204.163 29.8522 205.025 30.0493C205.887 30.2463 206.921 30.3449 208.153 30.3449C208.818 30.3449 209.434 30.3449 210 30.2956C210.567 30.2956 210.887 30.271 211.01 30.2463L210.69 32.4138C210.69 32.4138 210.271 32.4384 209.754 32.4877C209.212 32.5123 208.596 32.537 207.882 32.537C206.01 32.537 204.36 32.3153 202.98 31.8473C201.601 31.3793 200.443 30.7389 199.557 29.9508C198.793 29.2611 198.153 28.4237 197.611 27.3646C197.094 26.3301 196.823 25.1478 196.823 23.8917C196.823 22.6355 197.02 21.5025 197.414 20.4926C197.808 19.4828 198.424 18.5222 199.212 17.6601C199.902 16.8966 200.764 16.3301 201.798 15.9114C202.833 15.4926 203.892 15.2956 204.975 15.2956C206.059 15.2956 207.044 15.4434 207.882 15.7636C208.719 16.0591 209.458 16.5518 210.074 17.1675C210.764 17.8818 211.306 18.7439 211.65 19.7784C212.02 20.8128 212.192 22.0444 212.217 23.4976" fill="#131819"/>
<path d="M242.217 32.4631H239.458C239.458 32.4631 239.483 31.5764 239.507 30.1478C239.507 28.7192 239.507 27.3645 239.507 26.1084V21.133C239.507 19.803 239.187 18.8916 238.67 18.3744C238.153 17.8818 237.34 17.6109 236.232 17.6109C235.591 17.6109 234.803 17.7586 233.941 18.0542C233.054 18.3498 232.044 18.8178 230.936 19.4581V20.4187C230.936 21.3054 230.936 22.2168 230.911 23.1527C230.911 24.0641 230.911 24.9508 230.911 25.7882C230.911 27.6355 230.911 29.1626 230.961 30.4187C230.985 31.6749 231.01 32.3399 231.01 32.4384H228.251C228.251 32.4384 228.251 31.6503 228.276 30.4434C228.276 29.2118 228.276 27.7833 228.276 26.133V21.133C228.276 20.6404 228.227 20.1971 228.128 19.7537C228.054 19.3104 227.882 18.9409 227.685 18.6207C227.438 18.2759 227.118 18.0296 226.724 17.8572C226.33 17.6847 225.788 17.6109 225.049 17.6109C224.384 17.6109 223.621 17.7833 222.734 18.1527C221.847 18.5222 220.837 19.0641 219.704 19.7291C219.704 19.9261 219.704 20.6158 219.68 21.8473C219.68 23.0788 219.655 24.0641 219.655 24.8276C219.655 26.1577 219.68 27.7094 219.729 29.5567C219.778 31.404 219.778 32.3645 219.778 32.4631H217.02C217.02 32.4631 217.02 31.7242 217.02 30.5419C217.044 29.335 217.044 27.3399 217.044 24.5813V20.9113C217.044 19.3843 217.02 17.6355 216.995 15.6897H219.704V17.5862C220.493 17.0936 221.478 16.5517 222.685 16.0345C223.867 15.5419 224.926 15.271 225.837 15.271C226.995 15.271 227.956 15.4926 228.719 15.936C229.483 16.404 230.049 16.9705 230.37 17.6355H230.419C231.749 16.8719 233.005 16.2562 234.138 15.8621C235.271 15.4434 236.232 15.2463 237.02 15.2463C238.645 15.2463 239.902 15.6897 240.813 16.5764C241.724 17.4631 242.192 18.67 242.192 20.1724C242.192 21.3547 242.192 22.3153 242.168 23.1281C242.168 23.9163 242.143 24.7537 242.143 25.665C242.143 27.5123 242.143 29.0887 242.217 30.3695C242.217 31.6503 242.266 32.3399 242.266 32.4138" fill="#131819"/>
<path d="M258.3 27.6108C258.3 28.4236 258.103 29.1625 257.66 29.8029C257.241 30.4433 256.675 30.9606 256.01 31.3547C255.295 31.7734 254.458 32.0936 253.473 32.3152C252.488 32.5369 251.404 32.6354 250.222 32.6354C249.655 32.6354 249.039 32.6108 248.424 32.5616C247.808 32.5123 247.463 32.4877 247.389 32.463L247.291 30.2955C247.291 30.2955 247.808 30.3448 248.522 30.3941C249.236 30.4433 249.951 30.468 250.64 30.468C251.059 30.468 251.576 30.4187 252.217 30.3694C252.882 30.2955 253.399 30.1724 253.818 30C254.409 29.7537 254.827 29.4581 255.123 29.1133C255.394 28.7684 255.542 28.3251 255.542 27.8325C255.542 27.3891 255.419 27.0197 255.172 26.7241C254.926 26.4532 254.581 26.1822 254.162 25.9113C253.694 25.6157 253.054 25.2955 252.241 24.9507C251.428 24.6059 250.739 24.2857 250.172 23.9655C249.384 23.5221 248.768 22.9803 248.374 22.3645C247.956 21.7487 247.758 21.0098 247.758 20.197C247.758 19.3842 248.005 18.6453 248.473 17.9803C248.941 17.3399 249.581 16.8226 250.394 16.4285C251.084 16.0837 251.872 15.8128 252.709 15.7143C253.547 15.5911 254.359 15.5418 255.148 15.5418C255.862 15.5418 256.453 15.5418 256.921 15.5418C257.364 15.5418 257.635 15.5665 257.709 15.5665L257.906 17.7832C257.906 17.7832 257.463 17.7586 256.823 17.7093C256.182 17.6354 255.492 17.6108 254.729 17.6108C254.187 17.6108 253.67 17.6601 253.177 17.7586C252.685 17.8325 252.291 17.9803 251.946 18.1527C251.453 18.399 251.084 18.6946 250.862 19.0394C250.64 19.3842 250.542 19.729 250.542 20.0492C250.542 20.4926 250.69 20.8867 251.01 21.1822C251.305 21.5024 251.675 21.7734 252.069 21.995C252.537 22.266 253.202 22.5862 254.039 22.931C254.877 23.3005 255.468 23.596 255.837 23.8177C256.65 24.3103 257.266 24.8276 257.685 25.4433C258.128 26.0345 258.325 26.7487 258.325 27.5615" fill="#131819"/>
</g>
<defs>
<clipPath id="clip0_1_373">
<rect width="258.3" height="40" fill="white"/>
</clipPath>
</defs>
</svg>
